# AST/ASF file generated using VICON BodyLanguage
# -----------------------------------------------
:version 1.10
:name VICON
:units
  mass 1.0
  length 0.45
  angle deg
:documentation
   .ast/.asf automatically generated from VICON data using
   VICON BodyBuilder and BodyLanguage model FoxedUp or BRILLIANT.MOD
:root
   order TX TY TZ RX RY RZ
   axis XYZ
   position 0 0 0  
   orientation 0 0 0 
:bonedata
  begin
     id 1 
     name lhipjoint
     direction 0.693937 -0.600361 0.397515 
     length 2.37164 
     axis 0 0 0  XYZ
  end
  begin
     id 2 
     name lfemur
     direction 0.34202 -0.939693 0  
     length 6.18497  
     axis 0 0 20  XYZ
    dof rx ry rz
    limits (-160.0 20.0)
           (-70.0 70.0)
           (-60.0 70.0)
  end
  begin
     id 3 
     name ltibia
     direction 0.34202 -0.939693 0   
     length 6.91601   
     axis 0 0 20   XYZ
    dof rx
    limits (-10.0 170.0)
  end
  begin
     id 4 
     name lfoot
     direction 0.0978718 -0.2689 0.958182   
     length 1.81453   
     axis -90 7.62852e-016 20   XYZ
    dof rx rz
    limits (-45.0 90.0)
           (-70.0 20.0)
  end
  begin
     id 5 
     name ltoes
     direction 1.53569e-011 -4.21951e-011 1   
     length 0.912052   
     axis -90 7.62852e-016 20   XYZ
    dof rx
    limits (-90.0 20.0)
  end
  begin
     id 6 
     name rhipjoint
     direction -0.643996 -0.637876 0.422354   
     length 2.23216  
     axis 0 0 0  XYZ 
  end
  begin
     id 7 
     name rfemur
     direction -0.34202 -0.939693 0   
     length 6.15404   
     axis 0 0 -20   XYZ
    dof rx ry rz
    limits (-160.0 20.0)
           (-70.0 70.0)
           (-70.0 60.0)
  end
  begin
     id 8 
     name rtibia
     direction -0.34202 -0.939693 0   
     length 6.86744   
     axis 0 0 -20   XYZ
    dof rx
    limits (-10.0 170.0)
 end
 begin
     id 9 
     name rfoot
     direction -0.118701 -0.326127 0.937844   
     length 1.9243  
     axis -90 -7.62852e-016 -20   XYZ
    dof rx rz
    limits (-45.0 90.0)
           (-20.0 70.0)
  end
  begin
     id 10 
     name rtoes
     direction -1.5356e-011 -4.2181e-011 1   
     length 0.958865   
     axis -90 -7.62852e-016 -20   XYZ
    dof rx
    limits (-90.0 20.0)
  end
  begin
     id 11 
     name lowerback
     direction 0.0310826 0.968686 -0.246334   
     length 2.00021   
     axis 0 0 0   XYZ
    dof rx ry rz
    limits (-20.0 45.0)
           (-30.0 30.0)
           (-30.0 30.0)
  end
  begin
     id 12 
     name upperback
     direction -0.0152834 0.999474 -0.0286152   
     length 2.03728   
     axis 0 0 0   XYZ
    dof rx ry rz
    limits (-20.0 45.0)
           (-30.0 30.0)
           (-30.0 30.0)
  end
  begin
     id 13 
     name thorax
     direction -0.0323701 0.996236 0.0804149   
     length 2.16   
     axis 0 0 0   XYZ
    dof rx ry rz
    limits (-20.0 45.0)
           (-30.0 30.0)
           (-30.0 30.0)
  end
  begin
     id 14 
     name lowerneck
     direction 0.0307935 0.982251 0.185027   
     length 1.43558   
     axis 0 0 0   XYZ
    dof rx ry rz
    limits (-20.0 45.0)
           (-30.0 30.0)
           (-30.0 30.0)
  end
  begin
     id 15 
     name upperneck
     direction -0.0927153 0.994775 0.0427454   
     length 1.44603   
     axis 0 0 0   XYZ
    dof rx ry rz
    limits (-20.0 45.0)
           (-30.0 30.0)
           (-30.0 30.0)
  end
  begin
     id 16
     name head
     direction -0.0341265 0.999406 -0.00472033  
     length 1.45931  
     axis 0 0 0   XYZ
    dof rx ry rz
    limits (-20.0 45.0)
           (-30.0 30.0)
           (-30.0 30.0)
  end
  begin
     id 17 
     name lclavicle
     direction 0.820755 0.555306 -0.134151  
     length 2.66075  
     axis 0 0 0   XYZ
    dof ry rz
    limits (-20.0 10.0)
           (0.0 20.0)
  end
  begin
     id 18 
     name lhumerus
     direction 1 -4.48971e-011 5.24853e-027   
     length 5.0546   
     axis -180 -30 -90   XYZ
    dof rx ry rz
    limits (-60.0 90.0)
           (-90.0 90.0)
           (-90.0 90.0)
  end
  begin
     id 19
     name lradius
     direction 1 -4.48971e-011 2.76575e-028   
     length 3.39013   
     axis -180 -30 -90   XYZ
    dof rx
    limits (-10.0 170.0)
  end
  begin
     id 20
     name lwrist
     direction 1 -4.48939e-011 -2.27826e-027   
     length 1.69507   
     axis 2.17013e-015 90 90   XYZ
    dof ry
    limits (-180.0 0.0)
 end
  begin
     id 21 
     name lhand
     direction 1 -4.49009e-011 -4.55652e-027   
     length 0.572425   
     axis 2.90745e-015 90 90   XYZ
    dof rx rz
    limits (-90.0 90.0)
           (-45.0 45.0)
  end
  begin
     id 22 
     name lfingers
     direction 1 -4.48955e-011 -9.11303e-027   
     length 0.461504   
     axis 5.81489e-015 90 90   XYZ
    dof rx
    limits (0.0 90.0)
  end
  begin
     id 23
     name lthumb
     direction 0.707107 -6.34929e-011 0.707107   
     length 0.66263   
     axis -90 45 2.85299e-015   XYZ
    dof rx rz
    limits (-45.0 45.0)
           (-45.0 45.0)
  end
  begin
     id 24 
     name rclavicle
     direction -0.754477 0.632921 -0.173712   
     length 2.73081  
     axis 0 0 0   XYZ 
    dof ry rz
    limits (-10.0 20.0)
           (-20.0 0.0)
  end
  begin
     id 25 
     name rhumerus
     direction -1 -4.48969e-011 5.1496e-027  
     length 5.0701   
     axis -180 30 90   XYZ
    dof rx ry rz
    limits (-90.0 60.0)
           (-90.0 90.0)
           (-90.0 90.0)
  end
  begin
     id 26 
     name rradius
     direction -1 -4.48967e-011 -7.15624e-028   
     length 3.14957   
     axis -180 30 90   XYZ
    dof rx
    limits (-10.0 170.0)
  end
  begin
     id 27 
     name rwrist
     direction -1 -4.48938e-011 -2.27826e-027   
     length 1.57479   
     axis 2.17013e-015 -90 -90   XYZ
    dof ry
    limits (-180.0 0.0)
  end
  begin
     id 28
     name rhand
     direction -1 -4.49008e-011 -4.55652e-027   
     length 0.718191   
     axis 2.90745e-015 -90 -90   XYZ
    dof rx rz
    limits (-90.0 90.0)
           (-45.0 45.0)
  end
  begin
     id 29
     name rfingers
     direction -1 -4.48953e-011 -9.11303e-027   
     length 0.579024   
     axis 5.81489e-015 -90 -90   XYZ
    dof rx
    limits (0.0 90.0)
  end
  begin
     id 30
     name rthumb
     direction -0.707107 -6.34937e-011 0.707107   
     length 0.831366   
     axis -90 -45 -2.85299e-015   XYZ
    dof rx rz
    limits (-45.0 45.0)
           (-45.0 45.0)
  end
:hierarchy
  begin
    root lhipjoint rhipjoint lowerback
    lhipjoint lfemur
    lfemur ltibia
    ltibia lfoot
    lfoot ltoes
    rhipjoint rfemur
    rfemur rtibia
    rtibia rfoot
    rfoot rtoes
    lowerback upperback
    upperback thorax
    thorax lowerneck lclavicle rclavicle
    lowerneck upperneck
    upperneck head
    lclavicle lhumerus
    lhumerus lradius
    lradius lwrist
    lwrist lhand lthumb
    lhand lfingers
    rclavicle rhumerus
    rhumerus rradius
    rradius rwrist
    rwrist rhand rthumb
    rhand rfingers
  end

#!OML:ASF H:\Male1\Project 1\Capture day 1\Session 1\Male1.ASF
:FULLY-SPECIFIED
:DEGREES
240
root 15.2458 15.3941 3.78925 175.071 -29.9957 180.382
lowerback 4.53016 1.37296 -0.715195
upperback 2.76325 1.68337 -1.38679
thorax 0.318769 0.793826 -1.09097
lowerneck -7.06011 3.9063 7.83134
upperneck 7.06578 4.67153 -3.37761
head 3.91772 2.38061 -2.27565
rclavicle -4.14715e-014 -7.95139e-016
rhumerus 21.5838 -2.55743 -85.2869
rradius 57.8828
rwrist -62.8547
rhand -30.7233 -11.6119
rfingers 7.12502
rthumb -4.0159 -41.5538
lclavicle -4.14715e-014 -7.95139e-016
lhumerus 17.4031 9.21564 88.2065
lradius 64.9641
lwrist 68.4252
lhand -32.5206 29.4352
lfingers 7.12502
lthumb -5.75142 59.3371
rfemur -2.37305 14.0862 22.9081
rtibia 23.6512
rfoot -26.5083 -29.6482
rtoes -19.0261
lfemur -1.84344 -16.6537 -21.4881
ltibia 24.8755
lfoot -23.9727 27.7935
ltoes -2.33927
241
root 15.2468 15.3951 3.78856 175.105 -29.9589 180.334
lowerback 4.58291 1.37962 -0.78178
upperback 2.75486 1.68792 -1.39563
thorax 0.279151 0.795043 -1.06439
lowerneck -7.12377 3.8908 7.78763
upperneck 7.08556 4.64546 -3.32041
head 3.93168 2.36864 -2.24877
rclavicle -9.33791e-014 1.11319e-014
rhumerus 21.6094 -2.42488 -85.1748
rradius 57.9416
rwrist -62.7402
rhand -30.6647 -11.4723
rfingers 7.12502
rthumb -3.95931 -41.4153
lclavicle -9.33791e-014 1.11319e-014
lhumerus 17.4841 9.14784 88.1287
lradius 64.8849
lwrist 68.4105
lhand -32.4792 29.4711
lfingers 7.12502
lthumb -5.7114 59.3741
rfemur -2.41696 14.1163 22.8511
rtibia 23.7
rfoot -26.7709 -29.4478
rtoes -18.3347
lfemur -1.82398 -16.6995 -21.5343
ltibia 24.843
lfoot -24.4593 27.5691
ltoes -0.589141
242
root 15.2474 15.3959 3.78806 175.052 -29.9413 180.433
lowerback 4.78916 1.38434 -0.746182
upperback 2.62614 1.69556 -1.345
thorax 0.0316993 0.801243 -1.0397
lowerneck -7.04395 3.86954 7.8904
upperneck 7.46792 4.64302 -3.61161
head 3.64671 2.34642 -2.1243
rclavicle -4.75095e-014 8.34896e-015
rhumerus 21.4682 -2.4201 -85.134
rradius 57.9813
rwrist -62.5977
rhand -30.4572 -11.5206
rfingers 7.12502
rthumb -3.75901 -41.4672
lclavicle -4.75095e-014 8.34896e-015
lhumerus 17.3117 9.06072 88.0762
lradius 64.8834
lwrist 68.3618
lhand -32.5821 29.3302
lfingers 7.12502
lthumb -5.81073 59.2305
rfemur -2.43196 14.1567 22.9497
rtibia 23.7276
rfoot -26.7424 -29.442
rtoes -18.359
lfemur -1.822 -16.6387 -21.4198
ltibia 24.8339
lfoot -24.307 27.5619
ltoes -0.926919
243
root 15.2466 15.3958 3.78712 175.014 -29.9018 180.514
lowerback 4.74958 1.42406 -0.596224
upperback 2.66354 1.75417 -1.37421
thorax 0.0984225 0.831727 -1.15472
lowerneck -7.11158 3.85235 8.02098
upperneck 7.47724 4.6055 -3.66413
head 3.66284 2.3287 -2.16221
rclavicle 3.60546e-014 1.35174e-014
rhumerus 21.5287 -2.60135 -85.1995
rradius 58.0544
rwrist -62.3545
rhand -30.1421 -11.6797
rfingers 7.12502
rthumb -3.45473 -41.6315
lclavicle 3.60546e-014 1.35174e-014
lhumerus 17.4044 8.84104 88.0038
lradius 64.8893
lwrist 68.364
lhand -32.6386 29.0758
lfingers 7.12502
lthumb -5.86531 58.9746
rfemur -2.42768 14.1521 23.0265
rtibia 23.7075
rfoot -26.6064 -29.4385
rtoes -18.6033
lfemur -1.84284 -16.5205 -21.319
ltibia 24.8695
lfoot -24.0934 27.5768
ltoes -1.63663
244
root 15.2448 15.3955 3.78526 175.01 -29.8458 180.525
lowerback 4.79211 1.38378 -0.661353
upperback 2.62156 1.69916 -1.3252
thorax 0.0273012 0.804161 -1.06718
lowerneck -7.06225 3.91053 8.06977
upperneck 7.50708 4.68951 -3.74308
head 3.67176 2.36864 -2.18975
rclavicle 6.60711e-014 -1.03368e-014
rhumerus 21.474 -2.3563 -85.1896
rradius 58.1304
rwrist -62.0577
rhand -29.9516 -11.7652
rfingers 7.12502
rthumb -3.27072 -41.7199
lclavicle 6.60711e-014 -1.03368e-014
lhumerus 17.3274 8.90433 87.8731
lradius 64.8937
lwrist 68.4681
lhand -32.5838 29.0537
lfingers 7.12502
lthumb -5.8124 58.954
rfemur -2.40323 14.1742 23.0312
rtibia 23.6624
rfoot -26.6677 -29.339
rtoes -18.4555
lfemur -1.86494 -16.4048 -21.2957
ltibia 24.9246
lfoot -24.1801 27.4961
ltoes -1.4425
245
root 15.2427 15.3956 3.78336 174.983 -29.8259 180.548
lowerback 4.76611 1.38067 -0.628134
upperback 2.66761 1.69557 -1.32469
thorax 0.0899764 0.801946 -1.08379
lowerneck -7.19193 3.90272 8.25336
upperneck 7.54067 4.66616 -3.92072
head 3.71041 2.35358 -2.27239
rclavicle -9.04719e-014 8.34896e-015
rhumerus 21.5285 -2.24839 -85.1531
rradius 58.1874
rwrist -61.7577
rhand -29.7965 -11.714
rfingers 7.12502
rthumb -3.12091 -41.671
lclavicle -9.04719e-014 8.34896e-015
lhumerus 17.38 8.80694 87.7715
lradius 64.8733
lwrist 68.5665
lhand -32.5197 29.0403
lfingers 7.12502
lthumb -5.75051 58.9422
rfemur -2.36523 14.236 23.0602
rtibia 23.6501
rfoot -26.7461 -29.3271
rtoes -18.2867
lfemur -1.85265 -16.3873 -21.2755
ltibia 24.9456
lfoot -24.5546 27.3065
ltoes -0.117616
246
root 15.2417 15.3962 3.78193 174.953 -29.8076 180.574
lowerback 4.83034 1.37126 -0.6329
upperback 2.65666 1.682 -1.30318
thorax 0.0419747 0.795039 -1.0602
lowerneck -7.38466 3.88664 8.59774
upperneck 7.71272 4.62485 -4.26525
head 3.80805 2.32681 -2.43152
rclavicle 2.64135e-014 -4.37326e-015
rhumerus 21.4929 -2.12265 -85.088
rradius 58.2687
rwrist -61.6518
rhand -29.5362 -11.4418
rfingers 7.12502
rthumb -2.86953 -41.4023
lclavicle 2.64135e-014 -4.37326e-015
lhumerus 17.3153 8.70952 87.6627
lradius 64.8838
lwrist 68.5361
lhand -32.5378 28.8114
lfingers 7.12502
lthumb -5.76801 58.7129
rfemur -2.35249 14.2688 23.0942
rtibia 23.6803
rfoot -26.8278 -29.3125
rtoes -17.9072
lfemur -1.81688 -16.388 -21.2541
ltibia 24.9251
lfoot -24.7942 27.1798
ltoes 0.732002
247
root 15.2423 15.3965 3.78035 174.985 -29.7573 180.49
lowerback 4.96624 1.37754 -0.780156
upperback 2.58486 1.68303 -1.27258
thorax -0.112632 0.794733 -0.950866
lowerneck -7.4467 3.85929 8.66938
upperneck 7.89449 4.5911 -4.42071
head 3.87662 2.30553 -2.49113
rclavicle 8.13029e-014 0
rhumerus 21.3545 -1.98668 -84.977
rradius 58.3939
rwrist -61.7526
rhand -29.4086 -11.1309
rfingers 7.12502
rthumb -2.74633 -41.0929
lclavicle 8.13029e-014 0
lhumerus 17.1766 8.58443 87.5746
lradius 64.8933
lwrist 68.3622
lhand -32.6866 28.6569
lfingers 7.12502
lthumb -5.91166 58.5544
rfemur -2.36175 14.2677 23.0187
rtibia 23.7134
rfoot -26.8646 -29.2154
rtoes -17.7706
lfemur -1.77763 -16.3375 -21.3365
ltibia 24.9017
lfoot -24.435 27.4003
ltoes -0.675297
248
root 15.2434 15.3969 3.77871 175.072 -29.7074 180.353
lowerback 4.96843 1.46721 -0.857556
upperback 2.58121 1.79773 -1.30685
thorax -0.117645 0.851114 -0.948481
lowerneck -7.38026 3.74452 8.44289
upperneck 7.86394 4.45434 -4.28338
head 3.83899 2.23814 -2.42262
rclavicle 4.74598e-015 -1.11319e-014
rhumerus 21.2783 -2.16716 -84.865
rradius 58.5379
rwrist -61.8722
rhand -29.427 -11.0359
rfingers 7.12502
rthumb -2.76406 -40.9978
lclavicle 4.74598e-015 -1.11319e-014
lhumerus 17.163 8.17639 87.5879
lradius 64.9677
lwrist 67.9652
lhand -32.9372 29.0004
lfingers 7.12502
lthumb -6.15356 58.8911
rfemur -2.41125 14.269 22.8886
rtibia 23.7551
rfoot -26.8531 -29.1245
rtoes -18.0886
lfemur -1.76804 -16.2768 -21.4555
ltibia 24.8712
lfoot -24.3163 27.4811
ltoes -0.957157
249
root 15.2447 15.3976 3.77735 175.102 -29.6441 180.361
lowerback 4.82075 1.5719 -0.726727
upperback 2.67416 1.94268 -1.36085
thorax 0.0678277 0.923594 -1.07842
lowerneck -7.32897 3.63314 8.26945
upperneck 7.65809 4.30967 -4.09814
head 3.75074 2.16947 -2.34866
rclavicle -1.226e-013 4.37326e-014
rhumerus 21.3844 -2.4965 -84.8964
rradius 58.5971
rwrist -61.838
rhand -29.3723 -11.03
rfingers 7.12502
rthumb -2.71122 -40.9925
lclavicle -1.226e-013 4.37326e-014
lhumerus 17.2367 7.54092 87.5412
lradius 65.2267
lwrist 67.1793
lhand -33.4664 29.6123
lfingers 7.12502
lthumb -6.66446 59.4874
rfemur -2.48953 14.279 22.8996
rtibia 23.8174
rfoot -26.7439 -29.1463
rtoes -18.5757
lfemur -1.78003 -16.1782 -21.4103
ltibia 24.8201
lfoot -24.5181 27.3346
ltoes -0.0112341
